<svg width="25" height="26" viewBox="0 0 25 26" fill="none" xmlns="http://www.w3.org/2000/svg">
<path d="M20.7926 3.00878C20.6994 2.93513 20.5905 2.88401 20.4743 2.85939C20.3581 2.83478 20.2378 2.83734 20.1227 2.86687L7.62271 5.99187C7.45366 6.03401 7.30355 6.13148 7.19627 6.26876C7.08899 6.40603 7.0307 6.57525 7.03067 6.74947V17.501C6.37918 17.066 5.601 16.8611 4.81975 16.919C4.03851 16.9769 3.29901 17.2942 2.71875 17.8205C2.13849 18.3468 1.75074 19.0519 1.6171 19.8238C1.48347 20.5957 1.61162 21.3901 1.98119 22.0808C2.35076 22.7716 2.94055 23.319 3.65687 23.6361C4.37319 23.9533 5.17494 24.022 5.93476 23.8313C6.69458 23.6406 7.36888 23.2014 7.85054 22.5836C8.33219 21.9658 8.59358 21.2047 8.59317 20.4213V11.2653L19.5307 8.53093V14.376C18.8792 13.941 18.101 13.7361 17.3198 13.794C16.5385 13.8519 15.799 14.1692 15.2188 14.6955C14.6385 15.2218 14.2507 15.9269 14.1171 16.6988C13.9835 17.4707 14.1116 18.2651 14.4812 18.9558C14.8508 19.6466 15.4406 20.194 16.1569 20.5111C16.8732 20.8283 17.6749 20.897 18.4348 20.7063C19.1946 20.5156 19.8689 20.0764 20.3505 19.4586C20.8322 18.8408 21.0936 18.0797 21.0932 17.2963V3.62447C21.093 3.50577 21.0659 3.38865 21.0138 3.28199C20.9617 3.17532 20.8861 3.08189 20.7926 3.00878Z" fill="black"/>
</svg>
