<svg width="26" height="26" viewBox="0 0 26 26" fill="none" xmlns="http://www.w3.org/2000/svg">
<path d="M4.54382 6.8577H22.1483V19.533H4.54382V6.8577Z" fill="black"/>
<path d="M12.9297 0.859161C6.25636 0.859161 0.846313 6.26907 0.846313 12.9424C0.846313 19.616 6.25636 25.0255 12.9297 25.0255C19.6037 25.0255 25.0132 19.616 25.0132 12.9424C25.0132 6.2695 19.6039 0.859161 12.9297 0.859161ZM18.471 18.2866C18.2546 18.6416 17.79 18.7541 17.435 18.5363C14.598 16.8033 11.0265 16.4109 6.8204 17.3718C6.41508 17.4642 6.01107 17.2102 5.91872 16.8048C5.82594 16.3993 6.07889 15.9953 6.48521 15.9029C11.0881 14.8514 15.0363 15.3041 18.2214 17.2506C18.5764 17.4685 18.6889 17.9317 18.471 18.2866ZM19.95 14.9965C19.6773 15.4398 19.0973 15.5797 18.6543 15.307C15.4063 13.3106 10.4552 12.7324 6.61348 13.8986C6.11525 14.0491 5.58902 13.7683 5.4378 13.2709C5.28774 12.7727 5.56867 12.2475 6.06604 12.096C10.4544 10.7645 15.9099 11.4094 19.6398 13.7015C20.0828 13.9742 20.2227 14.5541 19.95 14.9965ZM20.077 11.5705C16.1826 9.25733 9.7573 9.04465 6.03906 10.1732C5.44198 10.3542 4.81057 10.0172 4.62963 9.4201C4.44868 8.82273 4.78546 8.19175 5.38297 8.01023C9.65124 6.71449 16.7468 6.96484 21.2305 9.62658C21.7687 9.94531 21.9447 10.6389 21.6258 11.1753C21.3084 11.7123 20.6123 11.8893 20.077 11.5705Z" fill="#1ED760"/>
</svg>
