<svg width="285" height="8" viewBox="0 0 285 8" fill="none" xmlns="http://www.w3.org/2000/svg">
<path d="M13.5063 6.61572L27.5307 6.97329C29.5202 6.97329 36.5324 6.97329 44.5557 6.97329C51.5679 7.34277 58.5801 7.34277 66.6034 6.97329C72.6045 7.34277 78.6057 7.34277 84.6394 7.34277C91.6516 7.34277 97.6527 7.34277 103.654 7.34277L111.677 7.34277C129.713 7.34277 147.749 7.34277 165.785 7.34277C168.786 7.34277 171.786 7.34277 174.787 7.34277C185.811 7.34277 196.835 7.34277 207.859 6.97329C218.882 6.97329 296.049 6.24623 259.977 3.31417C255.966 2.9566 267.968 2.58711 274.98 2.58711C281.992 2.58711 286.004 2.21762 283.003 1.49057C281.992 1.49057 281.014 1.12108 278.013 1.12108L255.965 0.751594C254.954 0.751594 233.918 0.751595 232.907 0.382106C231.896 0.382106 203.847 0.751594 203.847 0.751594C185.811 1.12108 167.775 1.12108 150.75 1.12108C145.76 1.12108 140.737 1.12108 135.714 1.12108C124.691 0.751596 114.678 0.751595 107.666 1.49057C87.64 1.12108 67.5818 1.12108 47.5563 1.12108C41.5551 1.12108 35.5214 0.382108 30.5313 1.12108C27.5307 1.49057 40.544 1.49057 38.5545 1.84814C34.5429 2.21762 25.5086 2.58711 24.4975 2.9566C24.4975 3.31417 26.5196 4.41071 21.4969 4.7802C15.4958 5.14969 7.47254 4.7802 2.48246 5.14969C-2.54024 5.51917 2.48246 5.87674 6.46148 6.61572C8.48361 6.61572 10.4731 6.61572 13.5063 6.61572Z" fill="#F3A13B"/>
</svg>
