<svg width="53" height="53" viewBox="0 0 53 53" fill="none" xmlns="http://www.w3.org/2000/svg">
<path d="M24.466 0.451672C23.4585 0.538063 22.9222 0.612114 22.9304 0.661484C22.9344 0.690281 22.7029 0.735535 22.3291 0.780785C21.9919 0.81781 21.5572 0.883636 21.3663 0.924774C20.375 1.14281 19.5219 1.35674 18.9207 1.54597C18.551 1.66116 18.0675 1.80927 17.8482 1.8792C15.9591 2.44692 13.6313 3.58648 11.7829 4.83712C10.8322 5.483 9.4063 6.60199 8.64255 7.30547C7.76911 8.1118 6.45692 9.43648 5.96536 10.0165C4.81161 11.3741 3.80411 12.8346 3.15411 14.1099C2.8413 14.7188 2.06942 16.426 1.83786 17.0102C1.40317 18.1251 0.89536 19.964 0.663798 21.2476C0.460673 22.3871 0.415985 22.8561 0.415985 23.9216C0.415985 24.9336 0.444423 25.2545 0.525673 25.2298C0.60286 25.201 0.675985 24.9336 0.842547 24.0862C0.92786 23.646 1.01723 23.1893 1.03755 23.0783C1.07005 22.9178 1.07411 22.9754 1.0538 23.3457C1.03755 23.6048 1.02536 24.2466 1.02536 24.7732C1.02536 25.8222 1.04973 25.9333 1.20817 25.6618C1.27723 25.5507 1.32598 25.3368 1.39505 24.8884L1.48848 24.2713L1.46411 25.0571C1.45192 25.5877 1.46005 25.9662 1.49255 26.2213C1.54536 26.5957 1.54536 26.5998 1.59817 26.4722C1.6388 26.3776 1.7363 25.5384 1.7363 25.2957C1.7363 25.2874 1.76473 25.2792 1.79723 25.2792C1.8988 25.2792 2.05723 24.6539 2.30911 23.2593C2.43911 22.5229 2.60161 21.6795 2.67067 21.3874C2.81286 20.7868 2.99161 17.8793 3.01598 17.904C3.02817 17.9122 3.00786 18.0644 2.97536 18.2413C2.90223 18.6198 2.9063 18.5951 2.95505 18.5951C2.97942 18.5951 2.99567 18.5622 2.99567 18.5211C2.99973 18.4717 3.01598 18.484 3.06067 18.5663C3.09317 18.628 3.13786 18.6692 3.16223 18.6568C3.18255 18.6404 3.2638 18.5046 3.34098 18.3565C3.42223 18.1919 3.47911 18.1138 3.48317 18.1632C3.48317 18.2125 3.49942 18.266 3.51973 18.2866C3.54005 18.3113 3.54005 18.5293 3.51973 18.7802C3.47505 19.4097 3.53598 19.9116 3.6538 19.9116C3.70661 19.9116 3.82442 19.6195 4.09255 18.809C4.36473 18.0068 4.38098 17.9698 4.41755 18.0809C4.43786 18.1385 4.47848 18.085 4.58005 17.8505C4.88473 17.1717 5.73786 15.4932 6.06286 14.942C6.47317 14.2385 6.69255 13.9176 7.79755 12.4201C8.9838 10.8157 9.49973 10.1821 10.5275 9.09195C11.0354 8.55302 11.1207 8.49543 10.7957 8.90682C10.2147 9.65144 9.9263 10.2027 10.1213 10.2027C10.1944 10.2027 10.625 9.86537 11.4254 9.17834C13.8344 7.10492 15.4675 5.97771 17.5475 4.96157C19.8185 3.84669 22.13 3.20081 24.8519 2.91284C25.5344 2.8429 28.0735 2.8429 28.7519 2.91284C30.0722 3.05271 31.4413 3.31189 32.5138 3.62043C39.5054 5.62803 46.6678 11.7012 48.9184 18.662C49.4018 20.1635 49.7146 21.731 49.8853 23.5082C49.9503 24.2116 49.9503 26.3139 49.8853 27.0461C49.6293 29.8683 48.8899 32.5053 47.6225 35.1094C45.9446 38.5651 41.756 43.1809 38.5547 45.3695C34.9675 47.8173 30.9538 49.068 26.2657 49.1996C22.5404 49.3066 19.0141 48.4838 15.4188 46.6654C14.846 46.3775 14.9882 46.5091 15.6219 46.8547C18.2666 48.2987 21.1104 49.1544 24.3157 49.4711C25.0469 49.5411 27.6429 49.5411 28.3782 49.4711C33.891 48.9281 38.5791 46.7271 42.4913 42.8395C42.9097 42.4199 43.4419 41.8645 43.6653 41.6053C44.2219 40.9635 44.2585 40.9306 43.9538 41.3585C43.8807 41.4613 43.8238 41.5765 43.8279 41.6135C43.84 41.7082 42.9138 42.7572 42.2029 43.4607C40.6225 45.0157 38.9285 46.2869 37.0719 47.2949C36.0644 47.842 34.2079 48.5455 32.7616 48.924C31.0066 49.3847 29.6782 49.5699 27.4032 49.6686C26.8344 49.6933 26.2169 49.7303 26.0341 49.755C25.2094 49.8537 22.8613 49.5863 21.3094 49.2119C17.7141 48.3439 14.3666 46.6325 11.4579 44.1724C10.9744 43.761 9.82067 42.6297 9.07723 41.8316C8.48005 41.1939 7.80567 40.3382 7.25317 39.5154C7.11098 39.3056 6.98911 39.1452 6.97692 39.1575C6.91598 39.2192 7.97223 40.6714 8.63848 41.4449C8.82536 41.6629 9.12192 42.0085 9.29661 42.2142C9.74348 42.7366 11.0435 44.0161 11.6204 44.5097C13.9604 46.4844 16.54 47.9284 19.4 48.8623C20.2369 49.1379 21.5044 49.4588 22.3047 49.6069C22.6175 49.6604 22.9669 49.7262 23.0766 49.7468C23.1985 49.7673 23.235 49.7838 23.17 49.7879C22.9547 49.7961 21.6019 49.5411 20.7894 49.3354C19.2254 48.9445 17.6654 48.3727 16.2516 47.6692C12.7944 45.9496 9.98723 43.6006 7.7488 40.5439C7.51317 40.223 7.31411 39.968 7.30192 39.9803C7.27755 40.0009 7.57817 40.4328 8.02098 41.0088C10.036 43.6294 12.5385 45.7809 15.3579 47.3113C18.941 49.2531 23.036 50.2157 27.2407 50.1047C27.7891 50.0923 28.3904 50.0718 28.5813 50.0594L28.9266 50.043L28.5691 50.1006C27.911 50.2034 26.9035 50.2569 25.7782 50.2569C23.2594 50.2528 21.3622 49.9525 19.1969 49.2161C17.2144 48.5414 14.9597 47.3895 13.2657 46.1882C9.15036 43.2714 6.03848 39.1904 4.45411 34.6404C4.19005 33.8752 4.11286 33.9123 4.36473 34.6816C5.62817 38.5651 8.04942 42.1463 11.2507 44.9643C11.4254 45.1165 11.6407 45.4107 11.6407 45.4189C11.6407 45.4313 11.4619 45.1947 11.336 45.0836C9.90192 43.8659 8.71973 42.6832 7.59848 41.1733C6.68036 39.9392 5.96942 38.7112 5.07973 36.9216C4.73442 36.2305 4.42567 35.6381 4.39317 35.6052C4.34442 35.5558 4.3363 35.5558 4.3363 35.6257C4.3363 35.7245 4.41348 35.9836 4.55567 36.3621C4.61255 36.5143 4.65317 36.6583 4.64098 36.6789C4.57192 36.79 5.93286 39.2809 6.72911 40.4822C8.16317 42.6461 10.1091 44.7154 12.2297 46.3363C12.8229 46.7847 13.9319 47.5294 14.586 47.9161C15.2522 48.3069 15.3335 48.3686 14.8704 48.1218C13.7654 47.5417 12.181 46.3384 11.0191 45.3552C9.19504 43.8165 7.73661 42.2553 6.4488 40.2971C5.97755 39.5895 5.42098 38.6083 5.44942 38.5795C5.48192 38.5466 5.23005 38.0612 5.12848 37.9707C5.0838 37.9254 4.98223 37.7403 4.90911 37.5593C4.83598 37.3783 4.67755 37.045 4.55973 36.8188C4.12505 35.996 3.48723 34.2023 3.13786 32.8324C2.69098 31.0716 2.46755 29.5824 2.3863 27.7681C2.32942 26.5669 2.31723 26.4764 2.31317 27.2127C2.29286 28.9982 2.63817 31.3431 3.21911 33.3878C3.88942 35.7368 4.99848 38.1866 6.30255 40.1942C6.5138 40.5192 6.6763 40.8072 6.66411 40.8278C6.61536 40.9018 7.11911 41.5415 8.11442 42.7798C8.18348 42.8662 8.13067 42.8374 7.95192 42.6852C7.6513 42.4343 7.59848 42.4631 7.78536 42.7757L7.9113 42.9896L7.72442 42.784C7.41567 42.4507 6.61942 41.4305 6.19692 40.8298C4.88473 38.9621 3.7513 36.7776 3.00786 34.6795C2.89411 34.3628 2.78036 34.046 2.75598 33.9802L2.7113 33.8567L2.72755 34.0007C2.73567 34.0789 2.85755 34.4697 2.99567 34.8646C4.24286 38.3985 6.23348 41.595 8.84567 44.2485C9.67442 45.0878 10.1172 45.4909 11.0394 46.2396C12.0388 47.0501 12.5263 47.4121 13.355 47.9675C16.861 50.3248 20.7894 51.6741 25.0225 51.9786C25.9 52.0403 27.6875 52.0279 28.5935 51.9539C31.6444 51.7071 34.6588 50.876 37.401 49.5267C39.745 48.3748 42.1257 46.7374 43.8522 45.0919C44.0838 44.8738 44.2788 44.6969 44.2869 44.6969C44.356 44.6969 44.1366 44.9849 43.8725 45.2359C42.2516 46.8033 39.8669 48.4612 37.7178 49.5102C34.2891 51.1887 30.7425 52.0238 26.8425 52.0814C22.8816 52.1349 19.1238 51.2957 15.5325 49.5514C11.8722 47.7741 8.70348 45.1412 6.23348 41.8172C3.49536 38.1352 1.83786 34.0131 1.28942 29.5165C1.17161 28.5374 1.08223 27.9533 1.04567 27.9327C0.923797 27.8586 0.980672 29.2203 1.14723 30.3517C1.77692 34.6919 3.48723 38.7893 6.09942 42.2286C8.68317 45.6308 12.1404 48.3748 16.0363 50.1191C20.5375 52.1349 25.2988 52.7808 30.2957 52.0567C33.2247 51.633 36.3935 50.5428 39.0057 49.0577C42.2597 47.2146 44.8882 44.8656 47.1875 41.7555C48.9385 39.39 50.3603 36.4279 51.1972 33.4042C51.8269 31.1251 52.1032 29.0722 52.1682 26.1843C52.1722 25.8798 52.1763 26.2871 52.1682 27.0893C52.1641 28.0643 52.1357 28.7637 52.095 29.1874C51.6563 33.4783 50.4091 37.1849 48.2072 40.7434C47.9635 41.1384 47.7685 41.4675 47.7807 41.4757C47.8091 41.5086 48.0772 41.1425 48.4063 40.6241C50.401 37.4605 51.6725 33.865 52.1682 30.0102C52.3632 28.4881 52.4322 26.1843 52.3185 24.8061C52.0747 21.7741 51.4369 19.0919 50.3644 16.5783C50.2507 16.3067 50.1003 15.92 50.0313 15.7184C49.4057 13.8343 47.8497 11.2096 46.1394 9.15262C45.5422 8.4368 44.2747 7.14914 43.6003 6.58553C42.4344 5.60642 41.0328 4.61085 40.2082 4.17889C38.5182 3.29851 37.8397 2.97762 36.755 2.54977C36.4544 2.43047 35.9141 2.21243 35.5566 2.06844C33.6107 1.26623 31.4129 0.743759 28.9144 0.488697C27.98 0.394077 25.4044 0.373508 24.466 0.451672ZM17.1941 2.51686C14.4113 3.63585 11.6854 5.29376 9.5363 7.17382C8.95942 7.67984 7.90723 8.71655 7.34255 9.33775C6.97286 9.74503 6.98098 9.71211 7.37911 9.21433C8.43942 7.88964 10.4991 6.133 12.4816 4.86591C13.8547 3.98553 15.7316 3.01053 16.8691 2.5868C17.2347 2.45104 17.5029 2.39344 17.1941 2.51686ZM13.8872 4.8906C13.8588 4.92351 13.6719 5.05104 13.4647 5.17446C11.8844 6.12889 9.97911 7.67161 8.78473 8.95515C8.35005 9.42414 7.11098 10.6336 7.27755 10.4279C7.33848 10.3498 7.63505 10.0165 7.93161 9.68743C9.52005 7.9349 11.3604 6.40452 13.4119 5.13332C13.68 4.96876 13.9075 4.833 13.9157 4.833C13.9279 4.833 13.9116 4.85769 13.8872 4.8906ZM5.06755 13.3283C5.06755 13.3365 4.99442 13.4681 4.90505 13.6162C4.69786 13.9577 4.34848 14.6612 4.05598 15.3276C3.93005 15.6115 3.78786 13.6008 3.74317 15.9324C3.58473 16.1052 2.68286 18.2074 2.42692 19.0055C2.34161 19.2811 2.26442 19.4292 2.26442 19.3264C2.26442 19.17 2.83317 17.5903 3.17848 16.7798C3.5888 15.8172 4.25098 14.5542 4.8888 13.501C4.99036 13.3365 5.06755 13.2583 5.06755 13.3283ZM3.2963 14.9625C2.96317 15.7689 2.41067 19.7336 2.21161 20.5482C2.0613 21.1653 1.87848 22.1773 1.74036 23.1317C1.69567 23.4321 1.64286 23.7036 1.62255 23.7283C1.60223 23.7571 1.5738 23.8146 1.56161 23.8599C1.51286 24.0286 1.58192 23.465 1.72005 22.5599C1.87036 21.552 2.0613 20.7127 2.38223 19.639C2.68286 18.6188 3.3938 16.7222 3.43036 16.8333C3.43848 16.858 3.37755 14.7609 3.2963 14.9625ZM1.11473 22.8191C1.10255 22.852 1.09036 22.8396 1.09036 22.7944C1.0863 22.7491 1.09848 22.7245 1.11067 22.7409C1.12286 22.7533 1.12692 22.7903 1.11473 22.8191ZM1.63473 24.2878C1.61848 24.3906 1.59411 24.4523 1.58598 24.4235C1.5738 24.3947 1.57786 24.2631 1.59817 24.1355C1.61848 23.9874 1.63473 23.9381 1.64692 23.9998C1.65505 24.0533 1.65098 24.1849 1.63473 24.2878ZM10.495 44.989C12.9163 47.1406 15.8129 48.9322 18.8719 49.9566C20.31 50.4379 21.8741 50.6457 23.5641 50.8678C24.1329 50.9419 24.3644 50.9871 24.8316 51.1105C25.0632 51.1722 24.4944 51.1352 23.6494 51.0324C18.1772 50.3618 13.1438 47.877 9.39411 43.9934L8.90661 43.4874L9.45911 44.0222C9.75973 44.3184 10.2269 44.7504 10.495 44.989ZM23.4747 49.8208C23.4463 49.829 23.3894 49.829 23.3529 49.8208C23.3122 49.8085 23.3366 49.8002 23.4016 49.8002C23.4707 49.8002 23.4991 49.8085 23.4747 49.8208Z" fill="#F3A13B"/>
<path d="M47.0697 42.463C45.331 44.701 43.3281 46.5728 41.0003 48.132C37.7585 50.3082 34.1266 51.7029 30.3769 52.2212C29.5644 52.3364 29.4507 52.357 29.5157 52.3776C29.5969 52.4105 30.8603 52.2295 31.6566 52.0772C35.5119 51.3244 39.1194 49.7035 42.3003 47.2845C43.7181 46.2108 45.0506 44.956 46.2125 43.6108C46.7325 43.006 47.3338 42.2326 47.3053 42.2038C47.2972 42.1915 47.1875 42.3108 47.0697 42.463Z" fill="#F3A13B"/>
</svg>
