<svg width="653" height="798" viewBox="0 0 653 798" fill="none" xmlns="http://www.w3.org/2000/svg">
<path fill-rule="evenodd" clip-rule="evenodd" d="M546.874 677.007C542.85 717.962 468.97 745.887 370.43 748.265C370.327 748.265 370.12 748.265 370.017 748.265C346.491 748.782 321.521 747.955 295.725 745.473C243.307 740.405 195.43 729.339 156.839 714.653C141.155 708.758 127.122 702.242 114.844 695.313C80.1738 675.662 60.3625 652.702 62.5294 629.846C67.0695 583.202 162.205 553.52 281.279 559.105C291.907 559.622 302.741 560.346 313.679 561.483C367.128 566.655 415.934 578.135 454.834 593.131C513.339 615.574 549.866 646.394 546.874 677.007Z" fill="#1C2628" stroke="#1C2628" stroke-width="2.13" stroke-linecap="round" stroke-linejoin="round"/>
<path d="M570.709 645.256C583.298 660.77 584.536 674.318 583.814 691.693C581.441 747.541 505.807 759.642 463.605 772.156" stroke="#1C2628" stroke-width="2.13" stroke-linecap="round" stroke-linejoin="round"/>
<path d="M149.616 538.317C88.7381 548.556 15.5808 588.58 37.7653 661.39" stroke="#1C2628" stroke-width="2.13" stroke-linecap="round" stroke-linejoin="round"/>
<path d="M419.855 692.624C423.054 688.177 422.538 691.072 418.823 691.9C405.512 694.899 392.202 698.415 378.994 701.932C362.278 706.379 348.039 717.238 332.665 725.099" stroke="#1C2628" stroke-width="2.13" stroke-linecap="round" stroke-linejoin="round"/>
<path fill-rule="evenodd" clip-rule="evenodd" d="M501.576 536.041C562.868 470.575 404.996 163.305 307.178 222.463C273.334 238.287 259.507 265.073 245.99 296.617C213.178 417.312 69.3395 376.977 65.0058 507.29C56.8543 697.485 435.952 675.973 501.576 536.041Z" fill="#F3A13B"/>
<path fill-rule="evenodd" clip-rule="evenodd" d="M147.037 313.061C169.531 309.442 190.993 307.166 184.802 339.227C183.977 343.571 177.786 370.668 156.014 373.667C111.851 380.803 102.668 319.163 147.037 313.061Z" fill="#F3A13B"/>
<path fill-rule="evenodd" clip-rule="evenodd" d="M213.694 306.029C204.201 312.751 186.144 303.443 192.128 290.929C196.771 264.763 247.951 294.238 213.694 306.029Z" fill="#F3A13B"/>
<path d="M222.464 454.854C225.663 462.404 228.965 470.678 226.901 478.642C225.25 485.261 220.194 490.535 215.138 495.086C212.559 497.361 209.876 499.74 206.574 500.671C203.272 501.705 199.248 501.084 197.081 498.395C194.708 495.499 195.327 491.052 197.081 487.743C198.422 485.157 200.693 482.882 203.478 482.055C208.328 480.607 213.487 484.226 215.448 488.88C217.408 493.534 216.892 498.809 215.861 503.773C211.63 524.044 200.177 541.833 188.93 559.208" stroke="#1C2628" stroke-width="2.13" stroke-linecap="round" stroke-linejoin="round"/>
<path fill-rule="evenodd" clip-rule="evenodd" d="M163.546 431.377C175.516 432.825 190.58 413.071 172.936 411.106C167.467 413.071 156.22 428.895 161.689 430.964" fill="#FAF6EB"/>
<path fill-rule="evenodd" clip-rule="evenodd" d="M282.001 298.168C269.103 300.857 263.944 312.544 270.238 324.748C271.992 328.161 282.311 343.054 291.597 341.399C296.034 340.572 310.17 342.537 307.384 308.718C305.63 295.479 299.233 294.652 282.001 298.168Z" fill="#F45B49" stroke="#1C2628" stroke-width="2.13" stroke-linecap="round" stroke-linejoin="round"/>
<path fill-rule="evenodd" clip-rule="evenodd" d="M477.431 494.052C461.851 546.384 383.431 666.768 377.859 686.729L377.034 683.316C359.389 689.521 258.166 690.452 225.044 658.494C221.742 655.288 219.162 651.875 217.305 647.945L244.752 579.479C243.101 581.858 226.901 567.482 245.784 527.767C250.943 516.908 261.674 487.536 261.674 487.536C262.5 483.089 264.873 465.817 267.762 444.719C267.349 443.995 267.246 443.581 267.246 443.581C258.166 437.376 224.115 439.858 216.376 413.175C215.241 409.141 214.622 404.384 214.829 398.799C215.035 392.594 218.853 389.698 223.187 388.457C227.417 387.216 232.164 387.422 234.537 387.629C247.332 388.353 259.817 393.111 271.683 398.075C272.508 398.385 273.231 398.799 274.056 399.109C278.08 370.047 281.898 344.812 283.136 343.468C285.2 341.192 287.16 338.917 289.121 336.745C295.312 329.919 301.606 324.748 312.234 328.678C319.147 331.16 325.854 333.849 332.252 336.952C345.769 343.468 358.048 351.742 367.85 364.049C377.549 376.149 386.32 389.181 392.924 403.143C398.908 415.76 402.829 429.516 405.306 443.167C407.06 452.476 408.298 462.197 407.679 471.712C407.576 474.091 407.266 476.366 406.854 478.745C404.996 489.191 402.417 499.43 399.528 509.565L477.431 494.052Z" fill="#F45B49" stroke="#1C2628" stroke-width="2.13" stroke-linecap="round" stroke-linejoin="round"/>
<path fill-rule="evenodd" clip-rule="evenodd" d="M225.044 658.494C221.742 655.288 219.162 651.875 217.305 647.945L244.752 579.479C243.101 581.858 226.901 567.482 245.784 527.767C250.943 516.908 261.674 487.536 261.674 487.536C262.5 483.089 264.873 465.817 267.762 444.719C267.349 443.995 267.246 443.581 267.246 443.581C258.166 437.376 224.115 439.858 216.376 413.175C223.909 414.519 231.957 417.001 240.521 419.587C257.65 424.758 267.968 427.861 273.437 437.479C279.834 448.649 271.889 454.854 277.152 481.227C278.699 489.191 280.247 492.5 282.208 504.187C284.478 517.632 285.509 524.458 283.549 529.526C278.596 542.04 264.047 543.281 264.254 551.141C264.357 555.795 269.516 557.657 274.778 562.621C274.778 562.621 288.811 575.652 289.946 599.336C291.391 629.225 251.975 663.769 225.044 658.494Z" fill="#FAF6EB"/>
<path fill-rule="evenodd" clip-rule="evenodd" d="M407.782 471.816C401.075 477.504 393.749 481.951 385.804 484.433C364.239 491.259 341.951 482.675 322.862 475.229C307.797 469.333 289.637 462.404 284.994 446.994C282.414 438.41 285.716 433.032 280.763 426.723C275.088 419.69 267.556 422.379 254.142 416.588C240.934 410.899 233.195 401.695 230.306 398.178C228.036 395.489 225.56 392.077 223.29 388.353C227.52 387.112 232.267 387.319 234.64 387.526C247.435 388.25 259.92 393.007 271.786 397.972C272.612 398.282 273.334 398.696 274.159 399.006C278.183 369.944 282.001 344.709 283.239 343.364C285.303 341.089 287.264 338.814 289.224 336.642C303.051 335.711 317.806 335.814 332.458 336.849C345.975 343.364 358.254 351.638 368.057 363.945C377.756 376.046 386.526 389.077 393.13 403.039C399.115 415.657 403.036 429.412 405.512 443.064C407.163 452.579 408.505 462.301 407.782 471.816Z" fill="#1C2628" stroke="#1C2628" stroke-width="2.13" stroke-linecap="round" stroke-linejoin="round"/>
<path fill-rule="evenodd" clip-rule="evenodd" d="M245.165 656.426C249.395 652.599 253.523 648.566 257.34 644.325C225.25 624.882 224.941 609.161 224.941 609.161L156.839 714.549C190.065 727.167 230.203 737.096 274.056 742.887C266.936 724.271 255.999 706.586 242.069 691.59C233.814 681.247 236.91 664.7 245.165 656.426Z" fill="#FAF6EB"/>
<path fill-rule="evenodd" clip-rule="evenodd" d="M287.78 659.425C275.294 654.254 265.389 649.186 257.34 644.325C253.626 648.565 249.498 652.599 245.165 656.426C236.91 664.699 233.814 681.247 242.069 691.589C256.102 706.586 267.04 724.271 274.056 742.887C281.176 743.818 288.399 744.645 295.725 745.369C321.417 747.852 346.388 748.782 370.017 748.162C370.12 748.162 370.327 748.162 370.43 748.162L399.424 666.768C399.424 666.871 362.175 690.245 287.78 659.425Z" fill="#FB564C"/>
<path fill-rule="evenodd" clip-rule="evenodd" d="M413.148 436.445C416.037 428.688 411.91 416.484 409.64 408.728C396.948 366.117 361.04 344.709 325.029 323.817C312.544 316.578 305.527 315.337 294.28 335.814C288.296 346.674 284.375 373.357 292.526 380.803C316.774 402.626 346.801 419.794 363.31 447.304C365.787 451.441 378.375 488.674 378.375 488.674C378.375 488.674 386.423 479.262 396.329 470.678C404.584 463.438 406.957 462.921 408.195 461.163L413.148 436.445Z" fill="#F7AA9A"/>
<path d="M523.451 274.898C520.459 273.347 519.221 269.727 520.769 266.624L520.975 266.314C522.523 263.315 526.134 262.074 529.23 263.625C532.222 265.177 533.46 268.796 531.912 271.899L531.706 272.209C530.055 275.312 526.444 276.45 523.451 274.898ZM527.991 266.107C526.34 265.28 524.38 265.9 523.451 267.555L523.245 267.866C522.419 269.52 523.039 271.485 524.69 272.416C526.34 273.243 528.301 272.623 529.23 270.968L529.436 270.658C530.261 268.9 529.642 266.935 527.991 266.107Z" fill="#1C2628" stroke="#1C2628" stroke-width="2.13" stroke-linecap="round" stroke-linejoin="round"/>
<path d="M516.951 287.619C513.958 286.068 512.72 282.448 514.268 279.345L514.474 279.035C516.022 276.036 519.634 274.795 522.729 276.346C525.825 277.898 526.96 281.517 525.412 284.62L525.205 284.93C523.555 288.033 519.943 289.171 516.951 287.619ZM521.388 278.828C519.737 278.001 517.776 278.622 516.848 280.276L516.641 280.587C515.816 282.241 516.435 284.206 518.086 285.137C519.737 286.068 521.697 285.344 522.626 283.689L522.832 283.379C523.761 281.621 523.142 279.656 521.388 278.828Z" fill="#1C2628" stroke="#1C2628" stroke-width="2.13" stroke-linecap="round" stroke-linejoin="round"/>
<path d="M528.198 259.385C523.761 257.11 522.11 251.628 524.277 247.284L531.809 232.702C534.079 228.255 539.445 226.6 543.882 228.772C548.319 231.047 549.97 236.528 547.803 240.872L540.27 255.455C538 259.902 532.531 261.66 528.198 259.385ZM542.644 231.254C539.548 229.702 535.833 230.84 534.286 233.943L526.753 248.525C525.205 251.628 526.34 255.351 529.436 256.903C532.531 258.454 536.246 257.316 537.794 254.214L545.326 239.631C546.874 236.528 545.739 232.805 542.644 231.254Z" fill="#1C2628" stroke="#1C2628" stroke-width="2.13" stroke-linecap="round" stroke-linejoin="round"/>
<path fill-rule="evenodd" clip-rule="evenodd" d="M580.099 172.613L426.149 472.229C421.506 481.331 410.362 484.847 401.282 480.193L266.627 410.693C257.547 406.039 254.038 394.869 258.682 385.768L345.975 215.74C349.071 215.534 352.166 215.327 355.365 215.12L266.214 388.767C263.531 394.042 265.595 400.557 270.857 403.35L404.48 472.229C406.028 473.057 407.679 473.47 409.433 473.47C413.457 473.47 417.172 471.195 419.029 467.575L572.361 169.097C572.876 168.062 573.186 167.028 573.392 165.994C573.496 165.994 573.599 165.89 573.702 165.89C576.591 164.649 579.377 163.305 582.163 162.064C582.473 165.477 581.853 169.2 580.099 172.613Z" fill="#1C2628" stroke="#1C2628" stroke-width="2.13" stroke-linecap="round" stroke-linejoin="round"/>
<path fill-rule="evenodd" clip-rule="evenodd" d="M573.289 165.994C573.083 167.028 572.773 168.062 572.257 169.097L419.029 467.575C417.172 471.195 413.457 473.47 409.433 473.47C407.679 473.47 406.028 473.057 404.48 472.229L270.857 403.35C265.595 400.661 263.531 394.145 266.214 388.767L355.365 215.223C376.105 213.775 398.702 211.19 422.331 207.363C481.559 197.641 535.524 182.438 573.289 165.994Z" fill="#FAF6EB"/>
<path fill-rule="evenodd" clip-rule="evenodd" d="M487.75 105.905C487.75 105.905 484.861 111.593 484.654 116.351C484.654 116.661 484.654 116.868 484.654 117.178C484.757 121.522 487.44 125.349 491.258 127.314L501.164 132.381C503.95 133.829 507.148 134.14 510.038 133.209C511.276 132.795 512.514 132.278 513.649 131.554C517.673 128.865 520.356 123.28 520.356 123.28L487.75 105.905Z" fill="#1C2628" stroke="#1C2628" stroke-width="2.13" stroke-linecap="round" stroke-linejoin="round"/>
<path fill-rule="evenodd" clip-rule="evenodd" d="M496.83 421.138C497.862 426.723 486.924 476.366 472.891 507.083L318.425 536.455C318.425 536.455 322.449 521.252 330.807 504.394C338.236 489.398 348.968 473.16 363.31 465.093C405.615 441.306 437.912 452.579 437.912 452.579C437.912 452.579 439.976 434.17 453.08 410.796C453.08 410.796 453.183 406.866 453.802 400.971C455.041 389.181 458.342 369.944 467.113 361.153C485.893 342.33 500.751 346.053 499.719 348.949C500.545 352.879 497.759 418.346 496.83 421.138Z" fill="#F45B49" stroke="#1C2628" stroke-width="2.13" stroke-linecap="round" stroke-linejoin="round"/>
<path fill-rule="evenodd" clip-rule="evenodd" d="M257.444 325.679C244.339 328.471 239.077 340.262 245.474 352.776C247.228 356.189 257.753 371.495 267.246 369.737C271.683 368.91 286.129 370.875 283.343 336.435C281.485 322.99 274.882 322.059 257.444 325.679Z" fill="#F45B49" stroke="#1C2628" stroke-width="2.13" stroke-linecap="round" stroke-linejoin="round"/>
<path d="M370.017 748.265C346.491 748.782 321.521 747.955 295.725 745.473C243.307 740.405 195.43 729.339 156.839 714.653" stroke="#1C2628" stroke-width="2.13" stroke-linecap="round" stroke-linejoin="round"/>
<path d="M227.314 616.401C227.314 616.401 231.957 631.397 257.34 644.325C282.724 657.253 309.035 674.732 346.078 674.732" stroke="#1C2628" stroke-width="2.13" stroke-linecap="round" stroke-linejoin="round"/>
<path d="M485.583 352.466C485.583 352.466 481.765 375.839 485.583 379.562C489.401 383.389 494.973 383.389 494.973 383.389" stroke="#1C2628" stroke-width="2.13" stroke-linecap="round" stroke-linejoin="round"/>
<path fill-rule="evenodd" clip-rule="evenodd" d="M439.047 470.368C423.776 477.607 416.037 465.507 396.329 470.678C372.081 477.194 370.017 499.326 349.174 504.601C344.324 505.842 338.236 506.255 330.704 504.394C338.133 489.398 348.864 473.16 363.207 465.093C405.512 441.306 437.809 452.579 437.809 452.579C437.809 452.579 439.872 434.17 452.977 410.796C452.977 410.796 453.08 406.866 453.699 400.971C458.239 407.487 461.438 414.933 462.367 423C464.327 441.306 454.834 462.818 439.047 470.368Z" fill="#FAF6EB"/>
<path fill-rule="evenodd" clip-rule="evenodd" d="M304.908 548.969C303.567 540.695 321.624 531.284 336.792 523.424C370.327 506.049 406.544 499.843 411.497 499.016C432.031 495.706 445.651 495.913 458.239 484.33C465.875 477.4 474.645 464.266 477.328 465.197C481.662 466.748 478.773 494.776 470.415 512.564C451.223 553.623 389.622 560.759 378.478 562.104C346.285 566.137 306.765 560.656 304.908 548.969Z" fill="#FB564C"/>
<path d="M555.232 310.993L524.07 331.781" stroke="#1C2628" stroke-width="2.13" stroke-linecap="round" stroke-linejoin="round"/>
<path d="M557.089 343.468L524.69 347.191" stroke="#1C2628" stroke-width="2.13" stroke-linecap="round" stroke-linejoin="round"/>
<path d="M522.213 363.118L552.136 395.593" stroke="#1C2628" stroke-width="2.13" stroke-linecap="round" stroke-linejoin="round"/>
<path d="M523.451 396.213L538.103 414.002" stroke="#1C2628" stroke-width="2.13" stroke-linecap="round" stroke-linejoin="round"/>
<path d="M228.346 667.492C224.631 676.179 222.155 686.108 225.353 694.899C227.727 701.622 233.092 706.793 237.632 712.378C242.172 717.962 246.093 724.788 244.958 731.924" stroke="#1C2628" stroke-width="2.13" stroke-linecap="round" stroke-linejoin="round"/>
<path d="M244.649 707.827C247.641 714.032 254.039 717.962 256.824 724.168C258.166 727.167 258.579 730.58 258.579 733.89" stroke="#1C2628" stroke-width="2.13" stroke-linecap="round" stroke-linejoin="round"/>
<path d="M277.358 594.165C277.358 598.922 277.358 603.783 276.533 608.541C275.707 613.298 273.953 617.952 270.754 621.469C267.349 625.295 262.603 627.674 258.063 629.949" stroke="#1C2628" stroke-width="2.13" stroke-linecap="round" stroke-linejoin="round"/>
<path d="M281.073 617.745C279.731 621.882 276.945 625.606 273.334 628.088" stroke="#1C2628" stroke-width="2.13" stroke-linecap="round" stroke-linejoin="round"/>
<path d="M254.038 353.913C253.523 349.363 253.007 344.605 254.761 340.468C256.515 336.332 261.468 333.022 265.698 334.884" stroke="#1C2628" stroke-width="2.13" stroke-linecap="round" stroke-linejoin="round"/>
<path d="M457.827 493.328C436.055 529.629 415.418 566.758 396.019 604.404" stroke="#1C2628" stroke-width="2.13" stroke-linecap="round" stroke-linejoin="round"/>
<path d="M428.935 566.241L387.661 645.773" stroke="#1C2628" stroke-width="2.13" stroke-linecap="round" stroke-linejoin="round"/>
<path d="M480.321 441.616C473.82 469.437 475.574 488.777 451.12 527.354" stroke="#1C2628" stroke-width="2.13" stroke-linecap="round" stroke-linejoin="round"/>
<path fill-rule="evenodd" clip-rule="evenodd" d="M627.873 123.797C626.326 135.691 609.403 149.033 582.06 161.96C579.377 163.201 576.488 164.546 573.599 165.787C573.496 165.787 573.392 165.89 573.289 165.89C535.524 182.335 481.456 197.641 422.331 207.26C398.702 211.086 376.105 213.672 355.365 215.12C352.166 215.327 349.071 215.534 345.975 215.74C320.902 217.085 298.717 216.775 280.557 214.706C247.641 211.086 228.346 201.985 230.1 188.23C231.854 174.578 254.245 158.754 289.327 144.068C318.735 131.761 357.016 120.178 399.631 111.387C403.036 110.663 406.338 110.042 409.743 109.318C418.204 107.663 426.871 106.112 435.642 104.664C445.135 103.113 454.421 101.768 463.398 100.631C468.351 100.01 473.201 99.4929 477.947 98.9758C510.863 95.4594 540.374 94.5286 564.415 96.08C605.173 98.769 629.834 108.387 627.873 123.797Z" fill="#1C2628" stroke="#1C2628" stroke-width="2.13" stroke-linecap="round" stroke-linejoin="round"/>
<path d="M353.92 194.539C350.825 194.745 347.833 194.952 344.84 195.056C335.347 195.573 326.164 195.883 317.6 195.883C304.805 195.883 293.145 195.263 282.827 194.125" stroke="#FAF6EB" stroke-width="2.13" stroke-linecap="round" stroke-linejoin="round"/>
<path d="M573.186 143.344C570.606 144.585 568.027 145.723 565.344 146.964L564.828 147.171" stroke="#FAF6EB" stroke-width="2.13" stroke-linecap="round" stroke-linejoin="round"/>
<path d="M297.272 163.201C325.958 151.204 363.723 140.035 403.758 131.657C407.06 131.037 410.259 130.313 413.664 129.692C421.918 128.141 430.38 126.59 438.944 125.142C448.024 123.694 457.104 122.349 466.081 121.212C470.621 120.591 475.058 120.074 479.289 119.66L480.321 119.557C501.989 117.282 522.213 116.041 540.683 116.041C548.628 116.041 556.264 116.247 563.28 116.661" stroke="#FAF6EB" stroke-width="2.13" stroke-linecap="round" stroke-linejoin="round"/>
<path d="M604.76 78.3946C657.59 81.8076 689.68 94.2183 686.998 114.179C685.037 129.589 662.956 146.964 627.564 163.719C624.056 165.373 620.341 167.028 616.626 168.683C616.523 168.786 616.42 168.786 616.317 168.786" stroke="#1C2628" stroke-width="2.13" stroke-linecap="round" stroke-linejoin="round"/>
<path d="M236.497 232.288C193.779 227.531 168.705 215.74 170.976 197.952C173.246 180.163 202.343 159.685 247.744 140.655C285.922 124.625 335.657 109.732 390.86 98.2518C395.194 97.321 399.631 96.4936 403.965 95.5628C415.005 93.391 426.252 91.4259 437.603 89.5643C449.881 87.5993 461.954 85.8411 473.717 84.3932" stroke="#1C2628" stroke-width="2.13" stroke-linecap="round" stroke-linejoin="round"/>
<path d="M543.882 783.636C485.996 799.046 427.8 819.627 367.953 816.007" stroke="#1C2628" stroke-width="2.13" stroke-linecap="round" stroke-linejoin="round"/>
<path d="M428.625 320.508C455.124 320.508 476.606 298.976 476.606 272.416C476.606 245.856 455.124 224.324 428.625 224.324C402.127 224.324 380.645 245.856 380.645 272.416C380.645 298.976 402.127 320.508 428.625 320.508Z" fill="#F3A13B"/>
<path d="M396.535 255.455C405.822 237.666 427.8 230.84 445.444 240.252" stroke="#1C2628" stroke-width="2.13" stroke-linecap="round" stroke-linejoin="round"/>
<path d="M405.409 260.109C412.116 247.284 428.006 242.32 440.801 249.146" stroke="#1C2628" stroke-width="2.13" stroke-linecap="round" stroke-linejoin="round"/>
<path d="M428.625 278.932C432.216 278.932 435.126 276.015 435.126 272.416C435.126 268.818 432.216 265.901 428.625 265.901C425.035 265.901 422.125 268.818 422.125 272.416C422.125 276.015 425.035 278.932 428.625 278.932Z" stroke="#1C2628" stroke-width="2.13" stroke-linecap="round" stroke-linejoin="round"/>
<path d="M431.515 307.166L418.513 331.988" stroke="#1C2628" stroke-width="2.13" stroke-linecap="round" stroke-linejoin="round"/>
<path d="M431.515 307.166C429.451 306.132 428.729 303.546 429.76 301.581L431.927 297.548C432.959 295.479 435.539 294.756 437.499 295.79C439.563 296.824 440.285 299.41 439.253 301.375L437.087 305.408C436.055 307.477 433.475 308.201 431.515 307.166Z" stroke="#1C2628" stroke-width="2.13" stroke-linecap="round" stroke-linejoin="round"/>
<path d="M347.214 333.022L420.784 370.565" stroke="#1C2628" stroke-width="2.13" stroke-linecap="round" stroke-linejoin="round"/>
<path d="M377.653 369.841L423.157 393.214" stroke="#1C2628" stroke-width="2.13" stroke-linecap="round" stroke-linejoin="round"/>
<path d="M327.299 344.088L377.653 369.841" stroke="black" stroke-width="6" stroke-linecap="round" stroke-linejoin="round"/>
<path d="M133.829 499.43C129.083 497.671 123.924 497.775 119.693 499.326C117.217 500.154 115.05 501.395 113.296 502.843C112.986 501.705 112.78 500.567 112.47 499.43C111.954 497.258 111.439 494.982 111.026 492.707C112.986 490.639 114.74 488.363 116.288 485.881C120.209 480.193 122.892 473.367 123.201 466.334C123.408 459.405 123.305 452.269 120.622 446.27C120.003 444.719 119.281 443.685 118.042 441.616C117.63 440.892 116.804 439.444 115.772 438.41C114.74 437.272 112.883 436.548 111.026 436.859C107.311 437.686 105.763 440.065 104.732 441.823C104.216 442.754 103.906 443.581 103.597 444.615C103.39 445.133 103.287 445.443 103.184 445.856L103.081 446.167C102.977 446.477 102.977 446.477 102.977 446.58L102.874 447.201C102.152 450.821 102.565 454.13 102.977 457.233C103.39 460.336 103.803 463.335 104.112 466.334C104.525 471.092 105.248 475.746 106.176 480.4C104.732 482.468 103.184 484.537 101.533 486.398L98.4374 489.915C97.4055 491.052 96.3737 492.397 95.2387 493.741C91.0081 499.119 87.7063 505.221 85.9521 512.047C84.0948 518.77 84.8171 526.733 88.6349 532.732C92.3495 538.834 98.3342 542.66 104.319 544.522C110.2 546.28 116.185 546.694 121.86 545.867C122.582 548.762 123.305 551.658 123.924 554.347C126.194 561.483 124.13 568.206 119.796 570.688C116.598 572.446 113.296 571.826 111.129 570.688C111.335 570.688 111.542 570.688 111.851 570.688C115.256 570.585 117.836 567.689 117.63 564.276C117.526 560.863 114.637 558.277 111.232 558.484C107.827 558.588 105.248 561.483 105.454 564.896C105.454 565.207 105.557 565.413 105.557 565.724C105.763 566.965 106.383 568.102 107.208 568.93C107.414 569.24 107.621 569.447 107.93 569.757C109.065 570.895 110.613 572.033 112.78 572.653C114.947 573.274 117.63 573.377 120.519 572.239C123.305 571.102 125.884 568.413 126.916 564.896C127.432 563.138 127.742 561.277 127.535 559.312C127.329 557.243 126.916 555.485 126.503 553.623C125.884 550.934 125.162 548.142 124.44 545.246C129.496 544.212 134.139 542.143 138.266 539.351C142.806 535.938 146.211 530.974 147.243 525.492C148.378 520.011 147.346 514.323 144.973 509.668C142.806 505.014 138.679 501.188 133.829 499.43ZM108.343 452.786C109.065 450.304 110.304 443.478 114.121 444.409C116.495 445.029 117.114 448.235 117.217 450.304C117.526 455.165 116.598 460.232 114.534 464.679C112.574 469.023 110.51 473.057 108.137 477.09C107.621 473.47 107.208 469.851 106.898 466.127C106.692 461.68 107.208 457.13 108.343 452.786ZM106.176 539.765C101.223 537.593 96.7864 534.076 94.5164 529.422C92.2463 524.872 92.2463 519.494 94.1037 514.426C95.961 509.358 99.4692 504.704 103.287 500.567C104.216 499.533 105.144 498.499 106.383 497.361L108.033 495.81C108.446 495.396 108.756 495.086 109.168 494.672C109.581 496.43 109.994 498.189 110.304 499.947C110.613 501.498 111.026 502.946 111.335 504.497C107.93 507.91 105.97 512.047 105.351 515.667C104.319 521.769 105.97 526.423 107.311 529.112C107.93 530.457 108.653 531.491 109.065 532.111C109.478 532.732 109.788 533.042 109.788 533.042C109.788 533.042 109.272 531.491 108.756 528.595C108.343 525.802 107.93 521.459 109.684 516.805C110.407 514.943 111.439 512.978 112.986 511.22C114.534 517.529 116.082 523.734 117.63 529.422C118.765 533.869 119.9 538.213 121.035 542.247C115.979 542.66 110.716 541.833 106.176 539.765ZM144.148 525.079C143.838 529.733 141.155 534.283 136.925 537.179C133.21 539.765 128.67 541.419 123.821 542.04C122.686 537.8 121.447 533.456 120.106 528.802C118.352 522.7 116.598 516.184 114.844 509.358C116.701 507.703 118.971 506.359 121.654 505.635C127.742 503.98 135.377 505.945 140.33 512.668C142.806 516.081 144.457 520.528 144.148 525.079Z" fill="#1C2628" stroke="#1C2628" stroke-width="2.13" stroke-linecap="round" stroke-linejoin="round"/>
<path d="M316.981 395.489L301.709 369.634L331.633 369.22L316.981 395.489Z" fill="#1C2628" stroke="#1C2628" stroke-width="2.13" stroke-linecap="round" stroke-linejoin="round"/>
<path d="M382.915 432.515L412.942 432.205L397.567 406.349L382.915 432.515Z" fill="#1C2628" stroke="#1C2628" stroke-width="2.13" stroke-linecap="round" stroke-linejoin="round"/>
<path d="M355.59 382.775L340.895 409.019L348.543 413.321L363.238 387.077L355.59 382.775Z" fill="#1C2628" stroke="#1C2628" stroke-width="2.1299" stroke-miterlimit="3.9998" stroke-linecap="round" stroke-linejoin="round"/>
<path d="M368.661 390.104L353.966 416.348L361.614 420.651L376.309 394.407L368.661 390.104Z" fill="#1C2628" stroke="#1C2628" stroke-width="2.1299" stroke-miterlimit="3.9998" stroke-linecap="round" stroke-linejoin="round"/>
</svg>
